<svg xmlns="http://www.w3.org/2000/svg" viewBox="0 0 48 48"><style>.a{fill:#008B00;}</style><circle cx="24" cy="24" r="10.7" fill="#5F83CF"/><path d="M16.2 18.9c0 0 3.1-4.8 9.3-4 0.3 0 0.7 0 0.8 0.3 0 0.1 0.7 0.6 0.7 0.6h-1.7l-0.4 0.3 1.6 0.9c-0.3 0.1-1.2 0.4-1.2 0.4l-0.9 1.1 0 1.2 1.3 0.6c0.1 0 0.3-0.6 0.3-0.6l2.1-1.3c0 0 0.2 1.8 0.2 1.8 0.1 0 0.6-0.2 0.9-0.4 -0.1 0.4-0.9 2-0.9 2l-1 1 0.3 0.5 -4 2.1c-0.2 0.1-0.3 0.2-0.4 0.4 -0.2 0.6 0.3 1.5 0.4 1.7 0.1 0.2-0.5 0.7-0.5 0.8 0 0-1.1-0.5-1.2-0.6 0 0-2.6-2.4-2.8-5l0.8-3 -1.8-0.6C18 19 16.5 18.9 16.2 18.9" class="a"/><path d="M26.8 27.3c0 0 1 0.1 1.1 0.1 0.2 0 0.7-0.7 0.7-0.7s-0.2-0.5-0.4-0.5c-0.1 0-1.7 0.2-1.7 0.2L26.8 27.3z" class="a"/><path d="M25.2 27.3c0 0 1.2 1.2 1.4 1.3 0.1 0.1-0.1 0.8-0.1 0.8l-0.8 1 -0.9-2C24.6 28.3 25.1 27.4 25.2 27.3z" class="a"/><path d="M30.4 23.1l-0.2 2.2c0 0 1.4 1 1.7 0.8 0.3-0.1-0.1-4.4-0.1-4.4L30.4 23.1z" class="a"/><path d="M28.5 29.7v-0.7l3-0.4c0 0-1.2 3.4-3.7 4l-1.5-0.8L28.5 29.7z" class="a"/></svg>
