<svg xmlns="http://www.w3.org/2000/svg" viewBox="0 0 473.7 473.7"><path d="M231.2 336c-9.3 0-17 7.7-17 17v11.3c0 9.4 7.7 17 17 17s17-7.6 17-17v-11.3C248.2 343.7 240.6 336 231.2 336z"/><path d="M236.9 473.7c130.6 0 236.9-106.2 236.9-236.9S367.5 0 236.9 0 0 106.3 0 236.9 106.3 473.7 236.9 473.7zM236.9 34c111.9 0 202.9 91 202.9 202.9s-90.9 202.9-202.9 202.9S34 348.8 34 236.9 125 34 236.9 34z"/><path d="M163.2 194.4C163.5 194.4 163.5 194.4 163.2 194.4c9.4 0 17-7.1 17-16.4 0 0 0.3-13.6 7.1-26.9 8.5-17 23.5-25.5 45.6-25.5 20.7 0 36 5.7 44.5 16.7 7.1 9.1 9.1 21.5 5.7 35.1 -4.2 16.7-18.7 31.2-32.6 45.3 -17 17.6-34.8 35.4-34.8 59.5 0 9.4 7.7 17 17 17s17-7.6 17-17c0-10.2 12.2-22.7 25.2-35.7 16.2-16.4 34.6-35.1 41.1-60.6 6.2-23.5 2-47-11.6-64.3 -10.5-13.6-31.4-30-71.1-30 -44.5 0-65.7 23.8-75.9 44.2 -10.2 20.4-10.8 40-10.8 42.2C146.5 187 153.9 194.4 163.2 194.4z"/></svg>